<svg id="SvgjsSvg1001" width="288" height="288" xmlns="http://www.w3.org/2000/svg" version="1.1" xmlns:xlink="http://www.w3.org/1999/xlink" xmlns:svgjs="http://svgjs.com/svgjs"><defs id="SvgjsDefs1002"></defs><g id="SvgjsG1008"><svg xmlns="http://www.w3.org/2000/svg" viewBox="0 0 512 512" width="288" height="288"><defs><clipPath id="a"><rect width="48.2" height="89.95" x="182.03" y="165.82" fill="none"></rect></clipPath><clipPath id="b"><rect width="44.55" height="83.15" x="300.9" y="227.7" fill="#e3c4a8" transform="rotate(-171.92 323.183 269.269)" class="colorf5b493 svgShape"></rect></clipPath></defs><path fill="#226089" d="M279.46,247.44c-20.28-16.5-42-17.69-42-17.69L241,296.23l27.69,45,43-21.65S299.73,263.93,279.46,247.44Z" class="color287eef svgShape"></path><path fill="#226089" d="M407.81,178.7l-93.13,70.86-57.9,22.27L279.46,333l114.09-25C415.16,269,421.54,223.35,407.81,178.7Z" class="color287eef svgShape"></path><g clip-path="url(#a)"><rect width="48.2" height="89.95" x="182.03" y="165.82" fill="#e3aa76" class="colore39c76 svgShape"></rect><path fill="#d49e6e" d="M184.61,182.16c5.65,24,24.5,41.37,48.94,45.77V191.08Z" class="colord48f6e svgShape"></path></g><rect width="44.55" height="83.15" x="300.9" y="227.7" fill="#e3c4a8" transform="rotate(-171.92 323.183 269.269)" class="colorf5b493 svgShape"></rect><g clip-path="url(#b)"><rect width="44.55" height="83.15" x="300.9" y="227.7" fill="#e3c4a8" transform="rotate(-171.92 323.183 269.269)" class="colorf5b493 svgShape"></rect><path fill="#ebb584" d="M346.59,245.86c-7.8,21.71-28.34,34.38-51.15,32.85q2.6-15.52,5.2-31Z" class="coloreba284 svgShape"></path></g><path fill="#e3aa76" d="M278.94,143.77c-1.43-11.44-4.18-18.4-4.87-25.88-1.7-18.5.32-32.63-12.89-45.23a64.67,64.67,0,0,0-14-12.17c-19-13.92-50.6-14.3-71.92,1.7-24.57,18.42-24.27,50.11-24.19,58,.34,36.76,25.88,61.42,37,70.49a94.64,94.64,0,0,0,20.12,14.72c8.18,4.34,30.08,16,45.87,5.8,4.13-2.66,9.79-9.33,16.47-24.94C279.2,166.05,280.37,155.22,278.94,143.77Z" class="colore39c76 svgShape"></path><path fill="#000000" d="M247.37 159.56c3.84-2.15 5.81-4.34 5.85-6.51.11-5-9.58-5.93-12.72-23a.51.51 0 01.4-.59.5.5 0 01.58.41c3.16 17.16 12.87 17.35 12.74 23.22-.05 2.55-2.19 5-6.37 7.36A.5.5 0 01247.37 159.56zM261.05 138.25c-2.69.23-5.15-3-5.5-7.12s1.55-7.72 4.24-7.94 5.16 3 5.51 7.12S263.74 138 261.05 138.25zM213.64 134.63c.34 4.16 2.81 7.35 5.5 7.13s4.59-3.78 4.25-7.94-2.82-7.35-5.51-7.13-4.59 3.78-4.24 7.94zM241.19 182.66c-7.85 0-15.41-2.69-19.84-9.25a.5.5 0 01.14-.69.49.49 0 01.69.13c7.48 11.08 22.92 8.55 23.07 8.53a.5.5 0 01.58.41.49.49 0 01-.41.57A26.42 26.42 0 01241.19 182.66zM244.62 109.35a1 1 0 01-.65-1.76c.11-.09 10.81-9.1 23-2.18a1 1 0 01.37 1.37 1 1 0 01-1.36.37c-10.9-6.22-20.26 1.62-20.65 2A1 1 0 01244.62 109.35zM202.94 111.86a1 1 0 01-.65-1.76c10.59-9.11 22.81-2.3 22.94-2.23a1 1 0 01.37 1.36 1 1 0 01-1.37.38c-.45-.26-11.13-6.17-20.64 2A1 1 0 01202.94 111.86z" class="color2d1929 svgShape"></path><path fill="#226089" d="M190.28,226.13c-16.51-2.78-28.18-.13-36.6,4.12-46.18,23.33-53.53,124.68-19.59,252.59H279.46c-14.12-153.37,19.33-197.84-7.22-232C253.19,226.38,215.17,224.66,190.28,226.13Z" class="color287eef svgShape"></path><polygon fill="#4592af" points="113.99 353.91 120.67 482.84 268.68 482.84 263.25 429.2 165.02 358.63 113.99 353.91" class="color1573d8 svgShape"></polygon><path fill="#4592af" d="M222.33,353.91s-36.69-82.42-34.11-90.67,30.87,50.78,45.33,48.07,13.51-62,20.17-61.75,12.08,12.91,18.78,16.26,36.34,0,36.34,0l-6.44,30.93-59.54,61.88-15.75,5.53Z" class="color1573d8 svgShape"></path><path fill="#e3c4a8" d="M265.24,198.48c2.8-10.29,6.22-16.3,7.82-23.06,4-16.71,3.94-29.9,17.68-39.72a59.26,59.26,0,0,1,14.37-9.32c19.22-10.27,48.17-6.52,65.61,10.89,20.08,20.06,15.69,49,14.6,56.22-5.09,33.59-31.66,52.85-43,59.7A86.42,86.42,0,0,1,322,264c-8.05,2.92-29.6,10.72-42.73-.64-3.43-3-7.75-9.81-11.83-25C262.11,218.83,262.44,208.77,265.24,198.48Z" class="colorf5b493 svgShape"></path><path fill="#000000" d="M291.51 217.79c-3.53-2.69-5.18-5.24-4.89-7.6.65-5.43 9.56-4.3 14.68-19.61a.5.5 0 01.94.32c-5.09 15.24-14.08 14.87-14.63 19.41-.24 2 1.28 4.23 4.5 6.69A.5.5 0 01291.51 217.79zM298.88 239.28a29.37 29.37 0 01-8-1.09.51.51 0 01-.32-.63.5.5 0 01.63-.32c.14 0 13.92 4.35 22.19-4.8a.5.5 0 01.74.67C309.65 238.07 303.66 239.28 298.88 239.28zM301.25 171.51a1 1 0 01-.75-.34c-.31-.36-7.84-8.7-18.56-4.45a1 1 0 01-.74-1.86c12.06-4.78 20.72 4.89 20.8 5A1 1 0 01301.25 171.51zM339.08 179.22a1 1 0 01-.75-.34c-7.61-8.67-18.11-4.67-18.55-4.5a1 1 0 01-.74-1.86c.12 0 12.24-4.71 20.79 5A1 1 0 01339.08 179.22z" class="color2d1929 svgShape"></path><path fill="#e3c4a8" d="M334.54,280.44c12.81-1.54,27.09-1,37.43,6.44,30.8,22.17-4.51,78.29,13,196H254.44a592.17,592.17,0,0,1-2.56-96.49c3.63-65.14,15.41-79.77,25-87.73C295.05,283.52,319.44,280.76,334.54,280.44Z" class="colorf5b493 svgShape"></path><path fill="#e3c4a8" d="M332.38,283.52c-11.33-2.56-33-5.59-54.3,4.81-16,7.82-24.8,19.85-36.42,37.8a835.48,835.48,0,0,0-50.87,90.73L127.22,322.7l-23,11.68a268,268,0,0,0,11.69,38.49c7.91,20.39,38.32,98.79,79.73,103.1,34.68,3.61,80-44.45,98.28-119.6q12.38-10.31,24.74-20.62Q325.52,309.64,332.38,283.52Z" class="colorf5b493 svgShape"></path><path fill="#e78f3f" d="M283.71,285.8c21.63,17.88,26.33,46.31,15,70.57L248,437.48q3.23,22.68,6.43,45.36H385a1085,1085,0,0,1-.91-109.28c2.06-47.95,4.1-75.73-13.37-88.32-10-7.23-23.54-7.15-41.52-7.05A145.72,145.72,0,0,0,283.71,285.8Z" class="colore73f46 svgShape"></path><path fill="#cc7e37" d="M303.9,320.51s9.26,31.4-8.62,67.48,16.31,68.56,37.1,73.2,51.72,6.18,51.72,6.18l.9,15.47H254.44L248,431.55s29.05-37.63,44.85-65.85S303.9,320.51,303.9,320.51Z" class="colorcc3745 svgShape"></path><path fill="#226089" d="M182,255.77s52.15,139.78,71.69,151.47,113.56,27.37,113.56,27.37l2.87,37.16S250.74,478,215.27,458.1s-81.52-139.53-81.52-139.53S127.22,228.71,182,255.77Z" class="color287eef svgShape"></path><path fill="#000000" d="M317.11,126.68c-.12,10.66,1.63,24.45,10.8,35,12.83,14.78,31.11,12.84,35.9,26,2.87,7.86,0,16.23-7.09,27.28-10.25,16-48.54,34.3-30.26,80.31s-7,76.25-7,76.25c55.43,9.9,77.77-.61,87.6-13.05,19.52-24.71-9.55-53.72-12.08-141-1.52-52.21,7.91-79.85-11.29-97.11-14.65-13.17-37.17-12.38-54.4-9.42-23.6-6.85-35.22-2.77-41.48,2.21-20,15.91-15.48,65.16-15.48,65.15,12.25-20.28,11.83-30.57,16.71-37.92C292.54,135,299.92,128.83,317.11,126.68Z" class="color2d1929 svgShape"></path><path fill="#e3c4a8" d="M385.44,216c-5,8.67-14.87,12.35-22,8.22s-8.85-14.51-3.83-23.18,14.88-12.35,22-8.22S390.46,207.37,385.44,216Z" class="colorf5b493 svgShape"></path><path fill="#000000" d="M364,215.43a.5.5,0,0,1,0-1h0c.2,0,4.35-.05,5.3-4,.66-2.73-4.26-4.27-4.31-4.28a.51.51,0,0,1-.29-.74c.24-.4,6-9.83,12.8-8.51,6,1.15,4.8,8,4.78,8a.5.5,0,1,1-1-.18c0-.24,1-5.89-4-6.85-5.29-1-10.13,5.59-11.42,7.52,1.5.57,5.09,2.29,4.38,5.25C369.11,215.39,364.05,215.43,364,215.43Z" class="color2d1929 svgShape"></path><path fill="#e3aa76" d="M182,225.15s17.78,26.24,32.09,24.3,16.11-21.34,16.11-21.34S205.36,220.82,182,225.15Z" class="colore39c76 svgShape"></path><path fill="#000000" d="M314.38 194.56a.49.49 0 01-.09-.7.5.5 0 01.7-.09 12.77 12.77 0 0015.54 0 .51.51 0 01.7.09.49.49 0 01-.09.7A13.76 13.76 0 01314.38 194.56zM278.15 185.8a.5.5 0 11.7-.72 12.77 12.77 0 0015.43 1.86.5.5 0 01.69.17.51.51 0 01-.18.69A13.78 13.78 0 01278.15 185.8z" class="color2d1929 svgShape"></path><path fill="#e3c4a8" d="M110.81,358.63s-12.12-37-10-51.06,7.65-27.06,10-29S114,281.8,114,281.8s1.78-7.35,4.89-8.12,1.68,8.12,1.68,8.12c7.91-16.35,7.48-1.79,5.28,16.32,1.3-4.52,4.2-13.65,7-9.88,3.64,5,3.38,18,3.35,19.51-.09,4.71.28,23.09.86,33.5Z" class="colorf5b493 svgShape"></path><path fill="#e3aa76" d="M343.54,429.92l21.85,1.54,17.87-8a13.08,13.08,0,0,1,5.41,2.36c12.62,9.69,4.56,45.23-4,46.4a4.06,4.06,0,0,1-2.25-.42l-36.53.81C336.05,459.07,335.51,443.55,343.54,429.92Z" class="colore39c76 svgShape"></path><path fill="#000000" d="M108.06 305.88a.5.5 0 01-.49-.62l5.93-23.58a.5.5 0 01.61-.36.48.48 0 01.36.6l-5.93 23.59A.49.49 0 01108.06 305.88zM116.56 305.88a.5.5 0 01-.49-.58l4.1-24.34a.5.5 0 011 .17l-4.1 24.34A.5.5 0 01116.56 305.88zM126.74 311.81a.49.49 0 01-.49-.46l-.91-13.19a.5.5 0 011-.07l.9 13.19A.5.5 0 01126.74 311.81z" class="color2d1929 svgShape"></path><path fill="#e3aa76" d="M394.64,226s-2.85-22.35,0-34.79-23.8-23.81-21.73-29.13,19.78,6.18,19.78,6.18-28.87-22-22.68-23S391.49,155,391.49,155c-3.52-3.38-20.74-20.45-16.32-22.51,4.07-1.9,14.63,9,18.47,13.1-6.12-15.07-6.26-18.59-5.32-19.11,2.31-1.28,15.58,13.07,21.38,31.44A70.71,70.71,0,0,1,394.64,226Z" class="colore39c76 svgShape"></path><path fill="#ef9442" d="M225.85,67.87s-11.34-6.7-15.12,10.31-4.13,31.67-26.12,32.68L168.46,136s6.95,40.82,13.57,49.37c-10.86-6.87-40.85-27.87-52-66.77-3.08-10.71-8.09-28.19-1.38-44.67,11.25-27.64,51.82-43.56,100-38.15,17-5.26,25-2.39,29.16.95,9.49,7.61,5.9,23.2,19.84,36.86a44.21,44.21,0,0,0,8,6.18c-12.19,9.83-19.79,10.23-24.48,8.76C248.7,84.6,246.4,64.33,235.44,63.66,231.37,63.41,227.92,66,225.85,67.87Z" class="colorefbd42 svgShape"></path><path fill="#e3aa76" d="M169.86,156.46c-8.27,3.34-18.27-2.1-22.33-12.15s-.64-20.9,7.62-24.24,18.27,2.1,22.33,12.14S178.13,153.12,169.86,156.46Z" class="colore39c76 svgShape"></path><path fill="#000000" d="M170.63,146.88s-5.46-.8-6-6c-.31-3.28,3.86-4.55,5.51-4.92-1.05-2.21-5.26-10.17-11.15-9.86-5.54.27-5.36,6.51-5.35,6.78a.5.5,0,0,1-1,0c0-.08-.22-7.5,6.3-7.82,7.51-.36,12.18,10.56,12.38,11a.5.5,0,0,1-.39.69c-.05,0-5.59.91-5.3,4,.42,4.45,4.91,5.13,5.1,5.15A.5.5,0,0,1,170.63,146.88Z" class="color2d1929 svgShape"></path><polygon fill="#226089" points="327.48 427.27 355.22 430.74 356.61 472.7 335.99 472.58 327.48 445.73 328.26 428.2 327.48 427.27" class="color287eef svgShape"></polygon><path fill="#4592af" d="M253.72,407.24s-13.29,6-20.5,23.54c0,0,19.85-17.24,29.77-19.45Z" class="color1573d8 svgShape"></path><path fill="#ebb584" d="M137,337.2s43.63,108.27,54.32,118.32,34.86,12,34.86,12l5-3.35s-19.43-4.81-29.73-17.9-52.3-91-52.3-91Z" class="coloreba284 svgShape"></path></svg></g></svg>