<svg xmlns="http://www.w3.org/2000/svg" viewBox="0 0 512 512" id="loudly-crying-face"><circle cx="256" cy="256" r="219.5" fill="#fdd402"></circle><path fill="#fbbf13" d="M106.5,256c0-109.31274,79.91138-199.94873,184.5-216.71045A221.05363,221.05363,0,0,0,256,36.5C134.77344,36.5,36.5,134.77344,36.5,256S134.77344,475.5,256,475.5a221.05363,221.05363,0,0,0,35-2.78955C186.41138,455.94873,106.5,365.31274,106.5,256Z"></path><path fill="#74563a" d="M152.67285 168.95313A72.45648 72.45648 0 0 1 123.126 162.5542a7.5 7.5 0 1 1 6.50781-13.51465c2.42285 1.167 24.28027 11.05615 45.4873-.7998a48.08362 48.08362 0 0 0 18.501-18.9458A7.50023 7.50023 0 0 1 206.77832 136.5a62.85588 62.85588 0 0 1-24.33984 24.834A60.352 60.352 0 0 1 152.67285 168.95313zM359.32715 168.95313a60.3485 60.3485 0 0 1-29.7666-7.61963A62.85557 62.85557 0 0 1 305.22168 136.5a7.50023 7.50023 0 0 1 13.15625-7.20605 48.08313 48.08313 0 0 0 18.5 18.94531c21.209 11.85449 43.06738 1.96679 45.48828.80029A7.5 7.5 0 1 1 388.874 162.5542 72.46655 72.46655 0 0 1 359.32715 168.95313z"></path><path fill="#4ebaea" d="M405.96,473.49C380.55005,496.6499,339,503.6,305.84009,500.98A162.7843,162.7843,0,0,1,270.95,494.34c-8.97-2.76-20.46-11.13-29.62988-10.98-5.99.1-12.92017,5.44006-18.25,7.97-21.41016,10.20007-45.97,13.04-69.32007,9.47009-38.39014-5.88013-63.26-33.18-49.1001-72.53C111.97,407.93994,122.76,389.64,128.01,368.51a271.437,271.437,0,0,0,7.93994-65.4V196.15991l49.89014-.02991h.01a60.11724,60.11724,0,0,1,8.68994,6.84c-.09009,6.89-.2,14.97-.3501,24.01-.06982,4.13-.1499,8.46-.24,12.96-.60986,30.95007-.43994,61.91-.32983,92.87012.06982,20.49-5.49024,75.27991,22.63989,76.68994,8.16992.41992,16.07007-2.91,24.11987-4.55a54.57186,54.57186,0,0,1,25.02.77c9.62012,2.47,18.80005,7.13,28.17017,12.45,5.58984,3.17005,13.48,8,19.42993,3.13013,8.05-6.59009,7.71-23.27,8.5-33.21008,1.32007-16.6,1.48-33.34,1.17993-49.98-.60986-32.78992-3.41992-65.46009-5.17993-98.17-.18994-3.45-.37012-7.47-.53-12.01-.24-6.8999-.40991-15-.37988-24.10986a59.1982,59.1982,0,0,1,9.7-7.78l49.21-.03c-.12012,2.58-.24,5.13-.34009,7.66992-1.76,42.23-1.05981,78.21008.34009,106.57007,2.47,50.48,42.87012,73.15991,48,117.15991A53.46752,53.46752,0,0,1,405.96,473.49Z"></path><path fill="#2e99d4" d="M183.75,500.80005c-38.39014-5.88013-63.26-33.18-49.1001-72.53C141.97,407.93994,152.76,389.64,158.01,368.51a271.437,271.437,0,0,0,7.93994-65.4V196.15991l19.92651-.012-.02636-.018h-.01l-49.89014.02991V303.11a271.437,271.437,0,0,1-7.93994,65.4c-5.25,21.13-16.04,39.42993-23.36011,59.76-14.15991,39.35,10.71,66.6499,49.1001,72.53a126.3494,126.3494,0,0,0,34.17676.56494Q185.83314,501.11487,183.75,500.80005Z"></path><path fill="#74563a" d="M203.80005 229.08a7.49466 7.49466 0 0 1-9.61011-2.1 7.35708 7.35708 0 0 1-.56982-.88 47.99527 47.99527 0 0 0-18.5-18.94007c-15.18018-8.49-30.69019-5.82995-39.17017-3.21a47.52658 47.52658 0 0 0-6.32007 2.41 7.50068 7.50068 0 0 1-6.5-13.52c3.14014-1.51 31.49024-14.33 59.31006 1.22009 1.16016.6499 2.29 1.32995 3.40015 2.06994h.01a60.11724 60.11724 0 0 1 8.68994 6.84 64.60864 64.60864 0 0 1 12.24 15.92993A7.49531 7.49531 0 0 1 203.80005 229.08zM392.37988 202.85a7.50159 7.50159 0 0 1-10.00976 3.51 49.35525 49.35525 0 0 0-7.21021-2.68006c-8.6499-2.52-23.61987-4.72-38.28 3.48a47.99527 47.99527 0 0 0-18.5 18.94007 7.31459 7.31459 0 0 1-1.40991 1.83 7.49871 7.49871 0 0 1-11.75-9.03 64.44823 64.44823 0 0 1 11.37012-15.07983 59.1982 59.1982 0 0 1 9.7-7.78q1.60473-1.05011 3.27-1.98C357.37988 178.51 385.73 191.33 388.87012 192.84A7.502 7.502 0 0 1 392.37988 202.85z"></path><path fill="#fff" d="M321.15,312.89a121.43789,121.43789,0,0,0-11.34-5.71,124.48,124.48,0,0,0-50.31-10.54h-7a124.52758,124.52758,0,0,0-50.32,10.54c-2.95,1.3-5.84,2.7-8.66,4.23l-.29,51.15q4.365-2.37,8.95-4.38a124.52758,124.52758,0,0,1,50.32-10.54h7a124.48,124.48,0,0,1,50.31,10.54,122.56142,122.56142,0,0,1,12.96,6.64Z"></path><path fill="#e0e0e2" d="M223.52,301.40991l-.14576-1.35105s-14.81442,3.75086-21.19433,7.12107c-2.95,1.3-5.83984,2.70007-8.65991,4.23l-.29,51.15015q4.36524-2.37012,8.95-4.38013a123.84452,123.84452,0,0,1,21.05835-7.0979Z"></path></svg>