<svg xmlns="http://www.w3.org/2000/svg" viewBox="0 0 128 128" id="pleading-face"><defs><clipPath id="a"><rect width="24.55" height="24.55" x="34.54" y="46.56" fill="none" rx="12.28" ry="12.28"></rect></clipPath><clipPath id="b"><rect width="24.55" height="24.55" x="67.86" y="46.56" fill="none" rx="12.28" ry="12.28"></rect></clipPath></defs><circle cx="64" cy="64" r="45.87" fill="#febb10"></circle><path fill="#3a3a3a" d="M33.75 45.06c-.53 0-1.03-.31-1.24-.83-.28-.68.05-1.46.73-1.74.05-.02 5.61-2.35 8.16-7.38.33-.66 1.14-.92 1.79-.59.66.33.92 1.13.59 1.79-3.01 5.94-9.26 8.54-9.53 8.65-.16.07-.33.1-.5.1zM94.25 45.06c-.17 0-.34-.03-.5-.1-.26-.11-6.52-2.71-9.53-8.65-.33-.66-.07-1.46.59-1.79.66-.33 1.46-.07 1.79.59 2.56 5.06 8.1 7.36 8.16 7.38.68.28 1.01 1.06.73 1.74-.21.52-.71.83-1.24.83zM71.55 84.83c-.26 0-.52-.04-.78-.14-4.89-1.78-9.65-1.78-14.54 0-1.18.43-2.48-.18-2.91-1.35-.43-1.18.18-2.48 1.35-2.91 5.85-2.14 11.79-2.14 17.65 0 1.18.43 1.78 1.73 1.35 2.91-.34.92-1.2 1.49-2.13 1.49z"></path><rect width="24.55" height="24.55" x="34.54" y="46.56" fill="#fff" rx="12.28" ry="12.28"></rect><g clip-path="url(#a)"><rect width="20.13" height="20.13" x="38.64" y="47.19" fill="#3a3a3a" rx="10.07" ry="10.07" transform="rotate(-180 48.705 57.255)"></rect><circle cx="54.59" cy="55.18" r="5.12" fill="#fff"></circle><circle cx="45.4" cy="56.67" r="1.75" fill="#fff"></circle></g><rect width="24.55" height="24.55" x="67.86" y="46.56" fill="#fff" rx="12.28" ry="12.28"></rect><g clip-path="url(#b)"><rect width="20.13" height="20.13" x="71.96" y="47.19" fill="#3a3a3a" rx="10.07" ry="10.07" transform="rotate(-180 82.025 57.255)"></rect><circle cx="87.91" cy="55.18" r="5.12" fill="#fff"></circle><circle cx="78.72" cy="56.67" r="1.75" fill="#fff"></circle></g><rect width="128" height="128" fill="none"></rect></svg>