<svg xmlns="http://www.w3.org/2000/svg" viewBox="0 0 512 512" id="ring"><path fill="#00acea" d="M293.43,174.27a158.529,158.529,0,1,1-74.84-.01l35.38,36.73a117.013,117.013,0,1,0,4.29-.01l-.11-.11,35.27-36.61Z"></path><polygon fill="#f4b844" points="337.38 128.24 337.54 128.45 293.42 174.26 258.15 210.87 256.3 212.79 294.56 128.41 337.15 128.41 337.38 128.24"></polygon><polygon fill="#ffbf4d" points="294.9 127.67 310.61 93.02 337.38 128.24 337.15 128.41 294.56 128.41 294.9 127.67"></polygon><polygon fill="#fedb41" points="310.61 93.01 310.61 93.02 294.9 127.67 256 93.02 256 93.01 310.61 93.01"></polygon><polygon fill="#f4b844" points="256 93.02 294.9 127.67 294.56 128.41 217.47 128.41 217.25 127.93 256 93.02"></polygon><polygon fill="#fedb41" points="294.56 128.41 256.3 212.79 256 213.1 255.7 212.79 217.47 128.41 294.56 128.41"></polygon><polygon fill="#fedb41" points="256 93.01 256 93.02 217.25 127.93 201.43 93.01 256 93.01"></polygon><polygon fill="#f4b844" points="253.97 210.99 218.59 174.26 174.46 128.45 174.65 128.19 174.94 128.41 217.47 128.41 255.7 212.79 253.97 210.99"></polygon><polygon fill="#ffbf4d" points="217.25 127.93 217.47 128.41 174.94 128.41 174.65 128.19 201.39 93.01 201.43 93.01 217.25 127.93"></polygon><path fill="#d4e1f4" d="M255 56a8 8 0 0 1-8-8V25a8 8 0 0 1 16 0V48A8 8 0 0 1 255 56zM290.455 62.932A8 8 0 0 1 283.2 51.58l10.33-22.4a8 8 0 1 1 14.53 6.7l-10.33 22.4A8 8 0 0 1 290.455 62.932zM221.545 62.932a8 8 0 0 1-7.27-4.652l-10.33-22.4a8 8 0 1 1 14.53-6.7l10.33 22.4a8 8 0 0 1-7.26 11.352zM193.122 77.57a7.98 7.98 0 0 1-5.921-2.618L169.971 56a8 8 0 0 1 11.838-10.764l17.23 18.95a8 8 0 0 1-5.917 13.382zM318.878 77.57a8 8 0 0 1-5.917-13.382l17.23-18.95A8 8 0 0 1 342.029 56L324.8 74.952A7.979 7.979 0 0 1 318.878 77.57z"></path></svg>